<?xml version="1.0" encoding="UTF-8"?>
<svg version="1.1" xmlns="http://www.w3.org/2000/svg" width="1024" height="1024">
<path d="M0 0 C1.21260498 0.19287598 1.21260498 0.19287598 2.44970703 0.38964844 C26.57668535 4.25114405 50.17422469 11.93386589 72.42822266 21.88525391 C75.93772255 23.40645919 79.50699358 24.7584282 83.09057617 26.09448242 C85 27 85 27 86 29 C87.64363134 29.72159424 89.31050386 30.39351421 91 31 C90.4092818 35.13455744 89.03103298 38.05103428 86.91015625 41.6328125 C85.98106445 43.21255859 85.98106445 43.21255859 85.03320312 44.82421875 C84.05770508 46.45810547 84.05770508 46.45810547 83.0625 48.125 C82.41603516 49.22199219 81.76957031 50.31898438 81.10351562 51.44921875 C76.45459906 59.31810142 76.45459906 59.31810142 74 63 C70.06649847 61.77471714 66.55821979 60.33007946 62.9375 58.375 C44.16996176 48.87538188 16.44685703 36.73403969 -5 38 C-5.66 38.33 -6.32 38.66 -7 39 C-7 38.01 -7 37.02 -7 36 C-18.88783063 35.07713176 -30.73067349 34.78329814 -42.65185547 34.75976562 C-45.60022442 34.75008138 -48.5478876 34.71894229 -51.49609375 34.6875 C-68.83721728 34.59052991 -85.99535199 36.21198953 -102.8125 40.625 C-103.79057617 40.87733398 -104.76865234 41.12966797 -105.77636719 41.38964844 C-142.0213051 51.081856 -175.15480763 68.49821288 -202.77734375 93.96484375 C-204.78864691 95.80647634 -206.84819672 97.5608619 -208.9375 99.3125 C-218.5486904 107.7247089 -226.43751091 117.76857253 -234 128 C-234.62455078 128.83120361 -234.62455078 128.83120361 -235.26171875 129.67919922 C-242.02212702 138.68874332 -247.73455809 148.04800123 -253 158 C-253.51409424 158.96244629 -253.51409424 158.96244629 -254.03857422 159.94433594 C-265.71682388 181.95915029 -272.9469873 204.75380135 -277.375 229.25 C-277.54290039 230.16563721 -277.71080078 231.08127441 -277.88378906 232.0246582 C-278.84200545 237.70100379 -279.12517091 243.11829648 -278.95947266 248.87402344 C-279 251 -279 251 -280 252 C-281.93056044 279.021996 -278.29812325 306.02525366 -271 332 C-270.76941895 332.82290527 -270.53883789 333.64581055 -270.30126953 334.49365234 C-263.19504988 359.12545073 -250.33638847 382.30738799 -234 402 C-233.52900879 402.57250488 -233.05801758 403.14500977 -232.57275391 403.73486328 C-219.91809287 419.01744934 -206.14186176 433.38864435 -190 445 C-189.37802734 445.45036621 -188.75605469 445.90073242 -188.11523438 446.36474609 C-172.66904113 457.46815285 -156.66287013 466.88648001 -139 474 C-138.1637207 474.33773438 -137.32744141 474.67546875 -136.46582031 475.0234375 C-82.25534801 496.56992332 -19.27163281 497.63211893 36 479 C37.24789307 478.58524414 37.24789307 478.58524414 38.52099609 478.16210938 C59.79107622 470.95411894 80.0734766 460.55097481 98 447 C98.91394531 446.31550781 99.82789063 445.63101562 100.76953125 444.92578125 C106.02944075 440.84210348 110.94318271 436.40087433 115.80371094 431.85546875 C118.03131064 429.77496038 120.27261221 427.78343142 122.66015625 425.88671875 C125.45823956 423.63050132 127.62286424 421.15426429 129.94140625 418.421875 C131.40314573 416.7021815 132.89330702 415.00646829 134.40234375 413.328125 C162.77036454 381.4500004 180.91712794 340.10889605 187 298 C187.15227051 296.97156982 187.15227051 296.97156982 187.30761719 295.92236328 C192.58515454 258.95462924 189.22685918 215.3473416 171.796875 181.67578125 C171 180 171 180 171 177 C170.34 176.67 169.68 176.34 169 176 C167.68459953 173.53806804 166.44974708 171.07998348 165.25 168.5625 C162.45435438 162.77547494 159.49047692 157.32119999 155.8359375 152.015625 C155 150 155 150 155.56152344 148.11499023 C157.599864 145.11802073 160.03355445 143.92356539 163.1796875 142.14453125 C163.78886017 141.79742599 164.39803284 141.45032074 165.02566528 141.09269714 C166.31224221 140.36244193 167.60178582 139.63739209 168.89404297 138.91723633 C170.86734389 137.81676964 172.83063889 136.69996881 174.79296875 135.58007812 C185.25222242 129.66625884 185.25222242 129.66625884 189 129 C208.17889707 163.81699697 222.17769499 201.05641412 225 241 C225.05494629 241.71736328 225.10989258 242.43472656 225.16650391 243.17382812 C229.56763628 302.11524689 215.91026973 361.51780514 183 411 C182.58540527 411.62406738 182.17081055 412.24813477 181.74365234 412.89111328 C175.86558466 421.63016674 169.25521144 429.63969998 162.29101562 437.52978516 C161.22730796 438.7411406 160.18145621 439.96815158 159.140625 441.19921875 C151.2688686 450.49334697 142.39726434 459.25626127 133 467 C132.27151855 467.61512451 132.27151855 467.61512451 131.52832031 468.24267578 C115.72691471 481.55430501 98.29538381 492.45458236 80 502 C79.29182129 502.37576172 78.58364258 502.75152344 77.85400391 503.13867188 C50.48976069 517.50225463 19.54791177 525.32458514 -11 529 C-11.75345703 529.09571289 -12.50691406 529.19142578 -13.28320312 529.29003906 C-23.18782044 530.37884451 -33.1733767 530.24386107 -43.125 530.25 C-44.59747696 530.25101212 -44.59747696 530.25101212 -46.09970093 530.25204468 C-61.26430902 530.23549905 -76.04565949 529.74942889 -91 527 C-91.96550781 526.82307617 -92.93101562 526.64615234 -93.92578125 526.46386719 C-107.54125837 523.88085236 -120.84539379 520.34622366 -134 516 C-134.7616748 515.75056641 -135.52334961 515.50113281 -136.30810547 515.24414062 C-170.6279742 503.81642487 -201.94894342 484.86857933 -229 461 C-229.78761719 460.32324219 -230.57523437 459.64648438 -231.38671875 458.94921875 C-243.826488 448.07234071 -256.12260513 436.27939388 -266 423 C-266.57790283 422.22873779 -266.57790283 422.22873779 -267.16748047 421.44189453 C-283.66763955 399.30467043 -297.14310569 375.19539079 -306 349 C-306.36448242 347.93120605 -306.36448242 347.93120605 -306.73632812 346.84082031 C-318.76696191 310.83460724 -321.87462089 269.5327096 -316 232 C-315.78996338 230.52563477 -315.78996338 230.52563477 -315.57568359 229.02148438 C-307.20609655 171.06882972 -279.71681464 117.11876599 -238.125 75.875 C-237.20847656 74.95074219 -236.29195313 74.02648437 -235.34765625 73.07421875 C-229.20901048 66.95284062 -222.79754221 61.37518212 -216 56 C-214.91622046 55.11903823 -213.83279526 54.23764003 -212.75 53.35546875 C-203.62615038 46.16266116 -193.92622624 40.02151703 -184 34 C-183.34193359 33.59394531 -182.68386719 33.18789063 -182.00585938 32.76953125 C-156.95469181 17.39782005 -127.57764983 7.16705633 -98.80615234 1.55126953 C-96.94639243 1.1859191 -95.08975918 0.80424756 -93.23681641 0.40576172 C-63.38170594 -5.93656937 -29.99246101 -5.24767151 0 0 Z " fill="#FED04E" transform="translate(551,248)"/>
<path d="M0 0 C18.4449746 -0.37824435 36.49903374 2.4695631 54.41259766 6.58984375 C57.99691823 7.37786288 61.60459447 8.01841739 65.22143555 8.63867188 C65.84574463 8.81849609 66.47005371 8.99832031 67.11328125 9.18359375 C67.44328125 9.84359375 67.77328125 10.50359375 68.11328125 11.18359375 C70.05334822 11.9200634 70.05334822 11.9200634 72.42578125 12.49609375 C81.58659121 15.11346803 90.09644879 19.0907799 98.61328125 23.30859375 C99.29600098 23.64528076 99.9787207 23.98196777 100.68212891 24.32885742 C104.06396008 26.030712 107.18324139 27.77677529 110.11328125 30.18359375 C107.81370591 36.41131474 104.22196432 41.81219607 100.73828125 47.43359375 C100.06539062 48.54734375 99.3925 49.66109375 98.69921875 50.80859375 C98.044375 51.865625 97.38953125 52.92265625 96.71484375 54.01171875 C95.82273193 55.46433105 95.82273193 55.46433105 94.91259766 56.94628906 C93.11328125 59.18359375 93.11328125 59.18359375 91.1394043 60.11279297 C88.6328982 60.20038024 87.3189452 59.63583301 85.09375 58.48828125 C84.32699951 58.10446289 83.56024902 57.72064453 82.77026367 57.32519531 C81.95533447 56.9072168 81.14040527 56.48923828 80.30078125 56.05859375 C39.97555588 36.26791461 -8.82481577 33.58111256 -51.3203125 47.97265625 C-68.8073637 54.19838787 -86.96948733 63.13639529 -100.18359375 76.5078125 C-101.88671875 78.18359375 -101.88671875 78.18359375 -103.88671875 78.18359375 C-103.88671875 78.84359375 -103.88671875 79.50359375 -103.88671875 80.18359375 C-104.95052264 81.14680873 -106.06631095 82.0526955 -107.19921875 82.93359375 C-133.83991464 105.66761516 -147.22493314 143.23278069 -150.38671875 177.0625 C-151.28984519 183.80711579 -151.28984519 183.80711579 -149.88671875 190.18359375 C-149.89270886 192.14236114 -149.94262848 194.10103607 -150.01171875 196.05859375 C-150.19958095 232.76686726 -133.99352982 268.1909795 -109.33203125 294.7578125 C-107.00829082 297.18151919 -107.00829082 297.18151919 -104.56640625 298.890625 C-104.01210938 299.31730469 -103.4578125 299.74398438 -102.88671875 300.18359375 C-102.88671875 300.84359375 -102.88671875 301.50359375 -102.88671875 302.18359375 C-102.35046875 302.41691406 -101.81421875 302.65023438 -101.26171875 302.890625 C-98.20059624 304.55712426 -95.59630895 306.70043204 -92.88671875 308.87109375 C-59.76971969 334.7363311 -14.69074186 342.31052143 26.296875 337.42578125 C61.95108566 332.49744718 93.57522165 319.01910163 119.11328125 293.18359375 C119.72429687 292.63058594 120.3353125 292.07757812 120.96484375 291.5078125 C145.26676709 269.07938545 157.71492743 231.84240405 159.23779297 199.54272461 C159.83114803 179.17148178 156.96898308 161.2670656 150.61645508 141.94506836 C150.11328125 140.18359375 150.11328125 140.18359375 150.11328125 138.18359375 C149.45328125 137.85359375 148.79328125 137.52359375 148.11328125 137.18359375 C147.33203125 135.29296875 147.33203125 135.29296875 146.61328125 132.93359375 C146.22849609 131.71929687 146.22849609 131.71929687 145.8359375 130.48046875 C145.59746094 129.7225 145.35898437 128.96453125 145.11328125 128.18359375 C144.01301176 124.38640428 144.01301176 124.38640428 141.11328125 122.18359375 C140.21875 120.58203125 140.21875 120.58203125 139.30078125 118.55859375 C137.88499817 115.56614315 136.33447493 113.04350064 134.30078125 110.43359375 C132.11328125 107.18359375 132.11328125 107.18359375 132.21875 105.21875 C133.40847068 102.51200557 134.96929059 101.26940772 137.23828125 99.37109375 C142.11364845 95.14766519 146.69337431 90.69779456 151.23828125 86.12109375 C151.91391113 85.44135498 152.58954102 84.76161621 153.28564453 84.0612793 C154.89689732 82.43738354 156.50619626 80.81161271 158.11328125 79.18359375 C161.46147525 80.29965842 161.72124721 80.68718123 163.4609375 83.55078125 C164.11388794 84.61679565 164.11388794 84.61679565 164.7800293 85.7043457 C165.24062744 86.48124756 165.70122559 87.25814941 166.17578125 88.05859375 C166.65893799 88.86578857 167.14209473 89.6729834 167.63989258 90.50463867 C193.90193758 134.83442235 204.85133292 183.6403122 192.16357422 234.52490234 C186.12396139 257.31234956 176.62582029 279.49907223 162.11328125 298.18359375 C161.53707031 299.02277344 160.96085937 299.86195313 160.3671875 300.7265625 C151.79842419 313.20194478 140.75668527 324.54453158 129.11328125 334.18359375 C127.67662109 335.37662109 127.67662109 335.37662109 126.2109375 336.59375 C98.82925828 358.75576971 65.55382827 370.74992394 31.11328125 376.18359375 C30.41009766 376.29630615 29.70691406 376.40901855 28.98242188 376.52514648 C-1.42295509 380.63607755 -32.9223446 376.64084985 -61.88671875 367.18359375 C-62.91853271 366.85584961 -62.91853271 366.85584961 -63.97119141 366.52148438 C-86.17779307 359.35272794 -105.8101507 346.97567429 -123.58203125 332.09375 C-125.84146131 330.17138599 -125.84146131 330.17138599 -128.19140625 328.5546875 C-128.75085938 328.10222656 -129.3103125 327.64976562 -129.88671875 327.18359375 C-129.88671875 326.52359375 -129.88671875 325.86359375 -129.88671875 325.18359375 C-130.72203125 324.84714844 -130.72203125 324.84714844 -131.57421875 324.50390625 C-157.21591241 309.8638852 -174.78857032 266.47143288 -182.17578125 239.91650391 C-185.520165 227.06038039 -187.98851972 213.98501888 -188.125 200.6796875 C-188.13479385 199.88743271 -188.14458771 199.09517792 -188.15467834 198.27891541 C-188.32549919 180.87591761 -188.14709183 164.16591422 -183.88671875 147.18359375 C-183.68304688 146.32282227 -183.479375 145.46205078 -183.26953125 144.57519531 C-174.25087315 107.03920627 -151.777486 66.35162501 -119.88671875 43.18359375 C-119.22671875 43.18359375 -118.56671875 43.18359375 -117.88671875 43.18359375 C-117.88671875 42.52359375 -117.88671875 41.86359375 -117.88671875 41.18359375 C-98.90884869 24.82829367 -73.65738897 14.11780517 -49.88671875 7.18359375 C-49.03883789 6.93593262 -48.19095703 6.68827148 -47.31738281 6.43310547 C-31.70576816 2.00811925 -16.15241974 0.76297862 0 0 Z " fill="#FED04E" transform="translate(501.88671875,321.81640625)"/>
<path d="M0 0 C-1.06488237 5.45752216 -3.52444943 7.58100833 -7.6328125 10.921875 C-11.4079471 14.23601956 -14.60830406 18.05568099 -17.8984375 21.83984375 C-18.93871094 22.90912109 -18.93871094 22.90912109 -20 24 C-20.66 24 -21.32 24 -22 24 C-22.20753906 24.52851563 -22.41507813 25.05703125 -22.62890625 25.6015625 C-24.56462377 28.98768945 -27.24601599 31.58870455 -29.9375 34.375 C-48.39426009 53.93346456 -60.90308817 74.12206365 -64.45703125 101.11328125 C-65 105 -65 105 -66 108 C-61.33566682 108.37637271 -56.67027319 108.70627213 -52 109 C-51.12085938 109.05671875 -50.24171875 109.1134375 -49.3359375 109.171875 C-32.01316317 109.751232 -15.84497048 102.19990033 -3 91 C-1.97011963 90.10667969 -1.97011963 90.10667969 -0.91943359 89.1953125 C7.58584675 81.67570107 15.48068673 73.56083017 23.43554688 65.46850586 C25.29648898 63.57757141 27.16343654 61.69273745 29.03125 59.80859375 C29.88740906 58.93224525 29.88740906 58.93224525 30.76086426 58.03819275 C32.13641853 56.65383865 33.56376275 55.32129043 35 54 C35.66 54 36.32 54 37 54 C37 53.34 37 52.68 37 52 C37.99 51.67 38.98 51.34 40 51 C42.52588702 53.36292656 43.88820837 54.66462511 45 58 C46.09594048 60.10846291 47.2015428 62.21191068 48.3125 64.3125 C58.54363481 84.26661801 59.4769899 106.17314165 53.1875 127.5625 C47.96596795 143.47574054 40.59082216 155.86679968 29 168 C28.34902344 168.73734375 27.69804688 169.4746875 27.02734375 170.234375 C12.27564222 186.26512579 -8.79825574 194.89008175 -30 198 C-30.87011719 198.14179687 -31.74023438 198.28359375 -32.63671875 198.4296875 C-59.32351972 201.86503708 -88.01199253 194.74624766 -109.7734375 178.9921875 C-112.24168706 177.05556092 -114.6262066 175.05082831 -117 173 C-118.13695312 172.07960938 -118.13695312 172.07960938 -119.296875 171.140625 C-137.21235934 156.19046221 -147.85132967 133.27652124 -150.625 110.375 C-153.13962666 80.10634576 -144.87051751 51.60361688 -125.578125 28.01953125 C-93.70016374 -9.31632338 -44.57330078 -21.16106199 0 0 Z " fill="#D31322" transform="translate(551,417)"/>
<path d="M0 0 C0.99 0.495 0.99 0.495 2 1 C4.76456272 10.47696404 5.21575117 20.564661 6.17456055 30.35913086 C7.0511303 39.23203477 8.03306197 47.5392835 11 56 C11.14816162 56.72058594 11.29632324 57.44117188 11.44897461 58.18359375 C11.72173218 59.08271484 11.72173218 59.08271484 12 60 C20.93573948 64.70057129 32.12987534 64.18693093 41.96948242 64.53320312 C50.17401258 64.88154694 58.00127603 66.20113563 66 68 C65.42333499 71.46757778 64.28994833 73.0466356 61.75 75.4375 C60.80253906 76.34628906 60.80253906 76.34628906 59.8359375 77.2734375 C59.23007812 77.84320313 58.62421875 78.41296875 58 79 C55.26401731 81.67084024 52.70052097 84.33269541 50.3125 87.3125 C49.549375 88.199375 48.78625 89.08625 48 90 C47.34 90 46.68 90 46 90 C45.75918701 90.56750977 45.51837402 91.13501953 45.27026367 91.71972656 C43.74374592 94.46000636 41.91799033 96.29039291 39.67578125 98.484375 C38.37930664 99.76441406 38.37930664 99.76441406 37.05664062 101.0703125 C36.15107422 101.95460938 35.24550781 102.83890625 34.3125 103.75 C27.21340575 110.65578289 27.21340575 110.65578289 20.53515625 117.9609375 C15.58836801 123.74106089 10.07656871 128.97886412 4.66308594 134.31640625 C3.25517685 135.70632591 1.85019602 137.09920977 0.4453125 138.4921875 C-0.38468262 139.31058105 -1.21467773 140.12897461 -2.06982422 140.97216797 C-4.0482742 142.85260529 -4.0482742 142.85260529 -5 145 C-5.66 145 -6.32 145 -7 145 C-7.25652344 145.58007812 -7.51304687 146.16015625 -7.77734375 146.7578125 C-13.60167009 157.43884547 -26.56676741 164.43287944 -37.82884216 167.8611145 C-41.00259844 168.70418352 -44.18472067 169.49915567 -47.375 170.27734375 C-49.76568342 170.87932533 -52.15630661 171.48154616 -54.546875 172.08398438 C-58.27821929 173.01411871 -62.01052784 173.94009695 -65.74414062 174.86108398 C-69.37393884 175.75969319 -72.99952821 176.67396001 -76.625 177.58984375 C-78.28474854 177.99166115 -78.28474854 177.99166115 -79.97802734 178.40159607 C-85.95868036 179.92038978 -91.01103543 181.77235441 -96.27099609 185.02613831 C-98 186 -98 186 -100 186 C-100 186.66 -100 187.32 -100 188 C-101.34705925 189.32593918 -101.34705925 189.32593918 -103.28366089 190.91278076 C-108.98241283 195.76463415 -114.19494212 201.08686328 -119.46142578 206.39550781 C-120.59547135 207.53475627 -121.72976588 208.67375696 -122.86428833 209.81253052 C-125.29260208 212.25072742 -127.71943406 214.69038606 -130.14517593 217.13114166 C-133.98317725 220.99233745 -137.82616963 224.84853965 -141.6701355 228.70379639 C-152.59515304 239.66214411 -163.51589727 250.62472596 -174.42626953 261.59765625 C-180.46295015 267.6688661 -186.5049801 273.73469842 -192.55300891 279.79460406 C-196.37419892 283.62388212 -200.18873101 287.45963245 -203.9984858 291.30028582 C-206.36923486 293.6870547 -208.74626739 296.06748698 -211.12513351 298.44616318 C-212.22503558 299.54848402 -213.32236569 300.65337823 -214.41688538 301.76104355 C-215.91387661 303.27525832 -217.41991748 304.77987468 -218.92849731 306.28253174 C-219.7679999 307.12609852 -220.60750248 307.9696653 -221.47244453 308.83879471 C-226.29185067 312.95966413 -230.58875483 314.59526451 -236.82421875 314.34375 C-241.00720357 313.68288346 -243.6539893 311.69404462 -246.25390625 308.421875 C-248.93272403 304.27764122 -249.69910611 300.98113106 -249 296 C-246.09185866 287.74937428 -240.26057261 281.88006249 -233.6640625 276.40234375 C-230.48369825 273.72217763 -227.65957957 270.85745344 -225.125 267.5625 C-222.86842716 264.84133864 -220.43782796 262.73131032 -217.734375 260.47265625 C-214.51470913 257.73884086 -211.64895015 254.83735503 -209.0625 251.5 C-206.65085484 248.57679375 -203.9327108 246.39404964 -201 244 C-199.32063816 242.34612595 -197.65578562 240.67747713 -196 239 C-195.02157747 238.02008976 -194.04238773 237.04094507 -193.0625 236.0625 C-192.55976562 235.55976563 -192.05703125 235.05703125 -191.5390625 234.5390625 C-183.69270833 226.69270833 -175.84635417 218.84635417 -168 211 C-167.25492188 210.25363281 -166.50984375 209.50726563 -165.7421875 208.73828125 C-163.36673503 206.36621261 -160.98500227 204.00075265 -158.6015625 201.63671875 C-156.94264302 199.98704484 -155.28379068 198.33730342 -153.625 196.6875 C-152.3875 195.46256836 -152.3875 195.46256836 -151.125 194.21289062 C-146.73980628 189.84509847 -142.51068099 185.42512311 -138.52246094 180.69018555 C-136.24309826 178.15971284 -133.64357839 176.14003965 -131 174 C-130.67 173.34 -130.34 172.68 -130 172 C-129.34 172 -128.68 172 -128 172 C-127.773125 171.443125 -127.54625 170.88625 -127.3125 170.3125 C-125.28167273 166.73437576 -122.30850225 164.17061076 -119.2578125 161.44140625 C-118.65710938 160.88324219 -118.05640625 160.32507813 -117.4375 159.75 C-116.87933594 159.24984375 -116.32117188 158.7496875 -115.74609375 158.234375 C-110.40335031 151.39757579 -109.06711458 143.28708817 -107.625 134.9375 C-102.34613397 106.93700326 -88.90424135 89.69704206 -69.05893517 69.98377037 C-67.09297116 68.0307594 -65.13031456 66.07447551 -63.16841125 64.11738586 C-59.01094173 59.97124063 -54.84951261 55.82908408 -50.6875 51.6875 C-45.84248259 46.86615418 -40.99914023 42.04314929 -36.15998268 37.2159214 C-34.23213135 35.29452121 -32.30128111 33.37617046 -30.37028503 31.45793152 C-29.18640594 30.27768548 -28.00266731 29.09729852 -26.8190918 27.91674805 C-26.28656799 27.38939056 -25.75404419 26.86203308 -25.2053833 26.31869507 C-22.24573769 23.35946897 -19.57866805 20.29322103 -17 17 C-15.35353315 15.31337542 -13.68816933 13.64488294 -12 12 C-11.443125 11.401875 -10.88625 10.80375 -10.3125 10.1875 C-9 9 -9 9 -7 9 C-7 8.34 -7 7.68 -7 7 C-6.34 7 -5.68 7 -5 7 C-4.5978125 6.1028125 -4.5978125 6.1028125 -4.1875 5.1875 C-3.01506533 3.02775192 -1.80630718 1.64209744 0 0 Z M-12 63 C-17.56115364 68.51060395 -23.11457778 74.02890786 -28.66259766 79.55273438 C-30.55186844 81.43304934 -32.44398189 83.31037218 -34.33740234 85.18652344 C-37.05253253 87.87750019 -39.76124899 90.57478762 -42.46875 93.2734375 C-43.32182739 94.11619232 -44.17490479 94.95894714 -45.05383301 95.82723999 C-45.83464233 96.60789825 -46.61545166 97.38855652 -47.41992188 98.19287109 C-48.11275269 98.88126068 -48.8055835 99.56965027 -49.51940918 100.27890015 C-51.21738397 101.87431013 -51.21738397 101.87431013 -51 104 C-51.639375 104.268125 -52.27875 104.53625 -52.9375 104.8125 C-55.33131686 105.88667752 -55.33131686 105.88667752 -56 109 C-56.66 109 -57.32 109 -58 109 C-68.55426402 118.98302808 -73.84285429 130.75429517 -76 145 C-72.71268312 143.90422771 -72.11996244 143.22195399 -70 140.625 C-66.42435247 136.38036035 -62.55995451 132.517989 -58.55664062 128.68212891 C-57.33492845 127.49074595 -56.16276828 126.24897714 -55 125 C-55 124.34 -55 123.68 -55 123 C-54.34 123 -53.68 123 -53 123 C-51.66999344 121.68416327 -51.66999344 121.68416327 -50.25 119.875 C-46.70620527 115.69093983 -42.89843222 111.84825539 -39 108 C-34.68160242 103.72781863 -30.49027108 99.43823909 -26.578125 94.78515625 C-24.78167769 92.75303639 -22.84473617 90.92645404 -20.875 89.0625 C-13.45283308 81.65471712 -11.16819739 74.30454712 -10 64 C-10.99 63.505 -10.99 63.505 -12 63 Z " fill="#42904E" transform="translate(760,191)"/>
<path d="M0 0 C1.26916929 3.64989501 0.747715 6.3802776 0.00390625 10.12890625 C-0.22490234 11.32966797 -0.45371094 12.53042969 -0.68945312 13.76757812 C-1.18281667 16.27046422 -1.67757729 18.77307539 -2.17382812 21.27539062 C-3.44461447 27.95680788 -4.26134232 34.19604161 -3.99243164 41.00366211 C-4 43 -4 43 -5 44 C-6.80436992 69.25571106 -3.68152767 94.40251101 2.6953125 118.796875 C3.75515546 122.86374827 4.52199897 126.82623491 5 131 C2.71857318 128.71857318 2.4115706 127.48333703 1.59765625 124.40625 C1.34846436 123.466604 1.09927246 122.52695801 0.8425293 121.55883789 C0.58511963 120.54942139 0.32770996 119.54000488 0.0625 118.5 C-0.33618286 116.95397095 -0.33618286 116.95397095 -0.74291992 115.37670898 C-3.02365082 106.31882922 -4.71588109 97.24750383 -6 88 C-6.25692627 86.17807129 -6.25692627 86.17807129 -6.51904297 84.31933594 C-7.06900164 79.86944892 -7.195486 75.46063535 -7.23828125 70.98046875 C-7.24793915 70.13197357 -7.25759705 69.28347839 -7.26754761 68.40927124 C-7.2923089 65.668636 -7.30493873 62.92823499 -7.3125 60.1875 C-7.31545074 59.25291962 -7.31840149 58.31833923 -7.32144165 57.35543823 C-7.33555161 37.6893204 -5.49271885 18.95948591 0 0 Z " fill="#FDECBD" transform="translate(276,456)"/>
<path d="M0 0 C0.33 0 0.66 0 1 0 C0.99476318 0.74983154 0.98952637 1.49966309 0.98413086 2.2722168 C0.96305436 5.74396898 0.95024386 9.21570761 0.9375 12.6875 C0.92912109 13.86634766 0.92074219 15.04519531 0.91210938 16.25976562 C0.89029642 24.22149544 1.26651958 32.07229225 2 40 C1.34 39.67 0.68 39.34 0 39 C0 37.68 0 36.36 0 35 C-0.66 35 -1.32 35 -2 35 C-3.42011311 24.22235586 -4.10200534 12.72022722 -2 2 C-1.34 1.34 -0.68 0.68 0 0 Z " fill="#E04442" transform="translate(403,497)"/>
<path d="M0 0 C4.875 3.625 4.875 3.625 6 7 C5.67 7.66 5.34 8.32 5 9 C4.34 9 3.68 9 3 9 C2.34 7.35 1.68 5.7 1 4 C-4.548997 5.47534721 -7.82108018 9.4416645 -11.70703125 13.4140625 C-12.43242599 14.14370209 -13.15782074 14.87334167 -13.90519714 15.62509155 C-16.21478117 17.95143481 -18.51370092 20.28800372 -20.8125 22.625 C-22.37886493 24.20641524 -23.94591453 25.78715264 -25.51367188 27.3671875 C-29.35042011 31.23696849 -33.1784707 35.11519227 -37 39 C-37.66 38.67 -38.32 38.34 -39 38 C-34.05906227 33.00850533 -29.11042057 28.02474758 -24.15625 23.04638672 C-22.47052874 21.35058495 -20.78660376 19.65299566 -19.10449219 17.95361328 C-16.6915115 15.51647436 -14.27222179 13.08575933 -11.8515625 10.65625 C-10.71867294 9.50787659 -10.71867294 9.50787659 -9.56289673 8.33630371 C-8.86232147 7.63557739 -8.16174622 6.93485107 -7.43994141 6.21289062 C-6.82261139 5.59111938 -6.20528137 4.96934814 -5.56924438 4.32873535 C-4 3 -4 3 -2 3 C-2 2.34 -2 1.68 -2 1 C-1.34 0.67 -0.68 0.34 0 0 Z " fill="#E38E7E" transform="translate(590,468)"/>
<path d="M0 0 C0.33 0 0.66 0 1 0 C1 18.81 1 37.62 1 57 C0.67 57 0.34 57 0 57 C-1.88969294 48.8277472 -2.28392253 40.95690096 -2.20581055 32.5847168 C-2.1875563 30.56871786 -2.18530182 28.55318254 -2.18554688 26.53710938 C-2.0959037 6.28771109 -2.0959037 6.28771109 0 0 Z " fill="#FEC82E" transform="translate(317,484)"/>
<path d="M0 0 C0.99 0.33 1.98 0.66 3 1 C4.16833945 3.49407179 5.16837066 5.92539233 6.125 8.5 C8.98072913 15.86756001 12.36163892 22.75998126 16.24267578 29.640625 C17.21659823 31.39780117 18.11601423 33.19590405 19 35 C18.67 35.66 18.34 36.32 18 37 C17.5875 36.2575 17.175 35.515 16.75 34.75 C15.15201711 31.99595812 15.15201711 31.99595812 13.04956055 30.14013672 C10.86176099 27.8556518 9.76001096 25.87753083 8.45703125 23.0078125 C8.02326172 22.05519531 7.58949219 21.10257813 7.14257812 20.12109375 C6.70365234 19.13238281 6.26472656 18.14367187 5.8125 17.125 C5.36197266 16.14402344 4.91144531 15.16304687 4.44726562 14.15234375 C2.334975 9.45906833 0.44877219 5.19167827 0 0 Z " fill="#FDDA73" transform="translate(280,589)"/>
<path d="M0 0 C7.5705929 11.35588935 4.3477756 30.38070613 2 43 C1.67 43 1.34 43 1 43 C1.00523682 42.01717041 1.01047363 41.03434082 1.01586914 40.02172852 C1.03411898 36.33716765 1.04550427 32.6526107 1.05493164 28.96801758 C1.05992654 27.38044561 1.06672475 25.79287817 1.07543945 24.20532227 C1.14710756 12.07067102 1.14710756 12.07067102 0 0 Z " fill="#E76D66" transform="translate(604,495)"/>
<path d="M0 0 C0.99 0.33 1.98 0.66 3 1 C1.89718873 2.27200971 0.79269231 3.54255853 -0.3125 4.8125 C-0.92738281 5.52019531 -1.54226563 6.22789062 -2.17578125 6.95703125 C-5.44911047 10.6228796 -5.44911047 10.6228796 -7 12 C-7.66 12 -8.32 12 -9 12 C-9.309375 12.61875 -9.61875 13.2375 -9.9375 13.875 C-11.65774613 17.31549226 -12.37403265 18.50695462 -16 20 C-16.99 20 -17.98 20 -19 20 C-19 20.66 -19 21.32 -19 22 C-19.66 21.67 -20.32 21.34 -21 21 C-14 14 -7 7 0 0 Z " fill="#5A995A" transform="translate(580,414)"/>
<path d="M0 0 C0.66 0.33 1.32 0.66 2 1 C1.32453125 1.59167969 0.6490625 2.18335938 -0.046875 2.79296875 C-0.93890625 3.58316406 -1.8309375 4.37335937 -2.75 5.1875 C-3.63171875 5.96480469 -4.5134375 6.74210938 -5.421875 7.54296875 C-7.88057147 9.88618099 -9.89507152 12.34325094 -12 15 C-16.10034592 18.09803914 -20.26827068 20.04204304 -25 22 C-27.11220596 23.08868692 -29.2118532 24.19542531 -31.30078125 25.328125 C-31.86152344 25.54984375 -32.42226563 25.7715625 -33 26 C-33.66 25.67 -34.32 25.34 -35 25 C-33.88882813 24.3709375 -32.77765625 23.741875 -31.6328125 23.09375 C-23.22431547 18.27794863 -15.3120075 13.4128818 -8 7 C-7.21496094 6.32324219 -6.42992187 5.64648438 -5.62109375 4.94921875 C-3.73516396 3.31255968 -1.86170513 1.66409397 0 0 Z " fill="#FDE39D" transform="translate(617,619)"/>
<path d="M0 0 C2 3 2 3 1.64453125 4.90234375 C1.36996094 5.57394531 1.09539062 6.24554688 0.8125 6.9375 C0.55082031 7.60652344 0.28914063 8.27554687 0.01953125 8.96484375 C-1 11 -1 11 -2.5078125 12.92578125 C-4.22670658 15.31513401 -4.90594673 17.4215215 -5.6875 20.25 C-5.93886719 21.14203125 -6.19023437 22.0340625 -6.44921875 22.953125 C-6.63097656 23.62859375 -6.81273437 24.3040625 -7 25 C-7.99 25 -8.98 25 -10 25 C-8.68231441 15.77620086 -4.29548519 8.14144286 0 0 Z " fill="#E34945" transform="translate(415,460)"/>
<path d="M0 0 C1 2 1 2 0.29296875 4.171875 C-0.07183594 5.02265625 -0.43664062 5.8734375 -0.8125 6.75 C-2.04455517 9.66980197 -3.1401228 12.46158099 -4.0625 15.5 C-5 18 -5 18 -8 20 C-8.33 19.67 -8.66 19.34 -9 19 C-11.31 22.3 -13.62 25.6 -16 29 C-16 25.56122039 -15.35115998 24.62639988 -13.515625 21.796875 C-12.99226562 20.98089844 -12.46890625 20.16492188 -11.9296875 19.32421875 C-11.37539063 18.47472656 -10.82109375 17.62523437 -10.25 16.75 C-9.17046044 15.07903804 -8.09231086 13.40717717 -7.015625 11.734375 C-6.50064453 10.93451172 -5.98566406 10.13464844 -5.45507812 9.31054688 C-3.53385447 6.25979843 -1.75359454 3.14966009 0 0 Z " fill="#FDE293" transform="translate(715,618)"/>
<path d="M0 0 C0.33 0.66 0.66 1.32 1 2 C-0.09985622 4.25165009 -1.25555804 6.39219987 -2.5 8.5625 C-7.05899451 16.76483687 -10.58167195 25.2725812 -14 34 C-16.37688484 26.86934548 -12.06220693 20.350407 -9 14 C-8.34 14 -7.68 14 -7 14 C-6.773125 13.175 -6.54625 12.35 -6.3125 11.5 C-4.72573768 7.26863382 -2.49251763 3.74828987 0 0 Z " fill="#FDE08D" transform="translate(299,400)"/>
<path d="M0 0 C5.06998019 0.65419099 9.41990777 2.8546409 14 5 C13.09985829 9.30067708 11.90171303 11.3884892 8.375 13.875 C7.26125 14.57625 6.1475 15.2775 5 16 C5.66 12.7 6.32 9.4 7 6 C6.01 5.34 5.02 4.68 4 4 C4 3.34 4 2.68 4 2 C2.68 1.34 1.36 0.68 0 0 Z " fill="#DA4C45" transform="translate(537,412)"/>
<path d="M0 0 C3.62885578 1.45154231 5.15432673 3.2400638 7.25 6.5 C7.77078125 7.2940625 8.2915625 8.088125 8.828125 8.90625 C10 11 10 11 10 13 C10.66 13 11.32 13 12 13 C12.391875 13.86625 12.78375 14.7325 13.1875 15.625 C15.13893957 19.25871505 17.28403159 21.91700883 20 25 C10.95044905 21.22084215 4.48483591 10.30631989 0 2 C0 1.34 0 0.68 0 0 Z " fill="#EB7062" transform="translate(413,563)"/>
<path d="M0 0 C0 3 0 3 -1.6796875 4.90234375 C-2.40414062 5.57394531 -3.12859375 6.24554688 -3.875 6.9375 C-6.65153791 9.51997881 -8.36479004 11.60538693 -10 15 C-11.86986814 17.02612453 -13.72400893 18.3742921 -16 20 C-16.99 19.67 -17.98 19.34 -19 19 C-12.73 12.73 -6.46 6.46 0 0 Z " fill="#72AD70" transform="translate(725,227)"/>
<path d="M0 0 C0 4.24645065 -1.81750806 6.38524772 -4 10 C-3.34 9.67 -2.68 9.34 -2 9 C-2.66 10.32 -3.32 11.64 -4 13 C-4.66 13 -5.32 13 -6 13 C-6.33 13.99 -6.66 14.98 -7 16 C-8.375 17.5 -8.375 17.5 -10 19 C-10.556875 19.556875 -11.11375 20.11375 -11.6875 20.6875 C-12.120625 21.120625 -12.55375 21.55375 -13 22 C-11.54728081 16.66229465 -9.03627576 12.6800674 -5.9375 8.1875 C-5.47794922 7.50751953 -5.01839844 6.82753906 -4.54492188 6.12695312 C-1.19907318 1.19907318 -1.19907318 1.19907318 0 0 Z " fill="#FCE29C" transform="translate(282,361)"/>
<path d="M0 0 C7.9754388 1.01814112 15.80586617 2.25305529 23 6 C23.33 6.99 23.66 7.98 24 9 C20.64048698 8.39461212 17.55115637 7.56675919 14.35546875 6.37109375 C13.51435547 6.05849609 12.67324219 5.74589844 11.80664062 5.42382812 C10.94232422 5.09833984 10.07800781 4.77285156 9.1875 4.4375 C8.30384766 4.10814453 7.42019531 3.77878906 6.50976562 3.43945312 C4.33856505 2.62965399 2.16872111 1.81641107 0 1 C0 0.67 0 0.34 0 0 Z " fill="#FDE08B" transform="translate(583,293)"/>
<path d="M0 0 C1 2 1 2 0.328125 4.53125 C-0.02765625 5.5109375 -0.3834375 6.490625 -0.75 7.5 C-1.09546875 8.4796875 -1.4409375 9.459375 -1.796875 10.46875 C-3 13 -3 13 -6 15 C-7.45056981 17.63430445 -7.45056981 17.63430445 -8.6875 20.625 C-9.34298828 22.12933594 -9.34298828 22.12933594 -10.01171875 23.6640625 C-10.33785156 24.43492187 -10.66398437 25.20578125 -11 26 C-12 23 -12 23 -10.48828125 19.453125 C-9.77317132 18.0468753 -9.04743362 16.64599176 -8.3125 15.25 C-7.78366211 14.21359375 -7.78366211 14.21359375 -7.24414062 13.15625 C-4.95186823 8.69742399 -2.51467223 4.33681621 0 0 Z " fill="#FDE39F" transform="translate(268,383)"/>
<path d="M0 0 C4.04665101 1.50739993 5.5639685 3.90234959 7.8125 7.5 C8.43769531 8.4796875 9.06289063 9.459375 9.70703125 10.46875 C10.13371094 11.3040625 10.56039063 12.139375 11 13 C10.67 13.66 10.34 14.32 10 15 C9.34 15 8.68 15 8 15 C6.52690889 12.89980986 5.18690365 10.82232271 3.875 8.625 C3.50246094 8.02171875 3.12992187 7.4184375 2.74609375 6.796875 C0 2.27034684 0 2.27034684 0 0 Z " fill="#FEDA79" transform="translate(368,587)"/>
<path d="M0 0 C1 3 1 3 -0.36328125 6.3203125 C-1.00267748 7.59378775 -1.65287331 8.86188505 -2.3125 10.125 C-2.63412109 10.77082031 -2.95574219 11.41664063 -3.28710938 12.08203125 C-5.72829433 16.86414717 -5.72829433 16.86414717 -8 18 C-7.52412884 11.97229862 -4.80277043 7.23321711 -2 2 C-1.34 2 -0.68 2 0 2 C0 1.34 0 0.68 0 0 Z " fill="#E95149" transform="translate(600,551)"/>
<path d="M0 0 C0.33 0.99 0.66 1.98 1 3 C-4.14036486 7.6208599 -9.40636594 11.93866463 -15 16 C-13.70789376 13.06623222 -12.48420965 11.31475428 -9.9375 9.375 C-6.99175287 7.32880603 -6.99175287 7.32880603 -6 5 C-5.34 5 -4.68 5 -4 5 C-3.71125 4.360625 -3.4225 3.72125 -3.125 3.0625 C-2 1 -2 1 0 0 Z " fill="#76A86A" transform="translate(636,358)"/>
<path d="M0 0 C0.66 0.99 1.32 1.98 2 3 C1.52949219 3.39832031 1.05898438 3.79664063 0.57421875 4.20703125 C-0.04839844 4.73683594 -0.67101562 5.26664062 -1.3125 5.8125 C-1.92738281 6.33457031 -2.54226563 6.85664063 -3.17578125 7.39453125 C-5.01489473 8.95288786 -5.01489473 8.95288786 -6.54296875 10.69921875 C-8 12 -8 12 -11 12 C-11 11.34 -11 10.68 -11 10 C-9.609375 8.6328125 -9.609375 8.6328125 -7.75 7.125 C-5.02194172 4.8672966 -2.45763077 2.555936 0 0 Z " fill="#6A9A63" transform="translate(540,454)"/>
<path d="M0 0 C0.33 0.66 0.66 1.32 1 2 C-3.03523352 6.81123996 -7.04467233 11.13242719 -12 15 C-12.66 14.67 -13.32 14.34 -14 14 C-9.38 9.38 -4.76 4.76 0 0 Z " fill="#268337" transform="translate(722,299)"/>
<path d="M0 0 C0.33 0 0.66 0 1 0 C0.1337386 10.25835866 0.1337386 10.25835866 -2 15 C-2.99 15.33 -3.98 15.66 -5 16 C-3.90301833 10.30860098 -2.45946923 5.25432063 0 0 Z " fill="#FED562" transform="translate(360,450)"/>
<path d="M0 0 C0.66 0.33 1.32 0.66 2 1 C-1.32224562 4.90852426 -5.81499042 7.81404174 -10.9375 8.25 C-11.618125 8.1675 -12.29875 8.085 -13 8 C-10.61664713 5.32561064 -8.12963852 3.84841988 -4.9375 2.25 C-4.05964844 1.80140625 -3.18179687 1.3528125 -2.27734375 0.890625 C-1.52582031 0.59671875 -0.77429688 0.3028125 0 0 Z " fill="#E65954" transform="translate(465,415)"/>
<path d="M0 0 C7.8773442 2.37330242 12.21697937 5.0563399 18 11 C13.28501126 9.64780353 9.67370412 7.69161848 5.625 4.9375 C4.56539063 4.22464844 3.50578125 3.51179687 2.4140625 2.77734375 C1.61742187 2.19082031 0.82078125 1.60429688 0 1 C0 0.67 0 0.34 0 0 Z " fill="#FCE298" transform="translate(352,731)"/>
<path d="M0 0 C-3.22222222 6.44444444 -3.22222222 6.44444444 -7 8 C-7.99 8 -8.98 8 -10 8 C-10 8.66 -10 9.32 -10 10 C-10.66 9.67 -11.32 9.34 -12 9 C-10.33333333 7.33333333 -8.66666667 5.66666667 -7 4 C-6.29875 3.236875 -5.5975 2.47375 -4.875 1.6875 C-3 0 -3 0 0 0 Z " fill="#649D62" transform="translate(571,426)"/>
<path d="M0 0 C0 3.80345877 -1.13786331 4.77701015 -3.5 7.6875 C-4.47453125 8.89986328 -4.47453125 8.89986328 -5.46875 10.13671875 C-5.9740625 10.75160156 -6.479375 11.36648438 -7 12 C-8.37462236 6.94561934 -8.37462236 6.94561934 -7 4 C-4.5625 2.875 -4.5625 2.875 -2 2 C-1.34 1.34 -0.68 0.68 0 0 Z " fill="#FDDE86" transform="translate(320,369)"/>
<path d="M0 0 C2 1 2 1 2.6328125 2.71484375 C3.92456079 8.54821499 4.2241478 14.03517796 4 20 C3.67 20 3.34 20 3 20 C2.34 14.39 1.68 8.78 1 3 C-0.98 4.32 -2.96 5.64 -5 7 C-3.70700306 4.11562221 -2.34058637 2.12780579 0 0 Z " fill="#9DBF90" transform="translate(760,191)"/>
<path d="M0 0 C0.6328125 1.8359375 0.6328125 1.8359375 1 4 C-1.9166062 7.60286648 -4.58256205 9.61166236 -9 11 C-7.59155282 7.78475695 -5.89655214 5.67816132 -3.375 3.25 C-2.74335937 2.63640625 -2.11171875 2.0228125 -1.4609375 1.390625 C-0.73777344 0.70226562 -0.73777344 0.70226562 0 0 Z " fill="#D93E38" transform="translate(535,432)"/>
<path d="M0 0 C0 3 0 3 -1.3125 4.38671875 C-2.875 5.59114583 -4.4375 6.79557292 -6 8 C-6.99 7.34 -7.98 6.68 -9 6 C-5.67692308 1.2 -5.67692308 1.2 -2.25 0.1875 C-1.5075 0.125625 -0.765 0.06375 0 0 Z " fill="#539855" transform="translate(622,375)"/>
<path d="M0 0 C0.33 0.66 0.66 1.32 1 2 C0.34 2 -0.32 2 -1 2 C-1.061875 2.53625 -1.12375 3.0725 -1.1875 3.625 C-2.38027382 7.11156962 -4.56197166 9.24940393 -7 12 C-7.99 11.34 -8.98 10.68 -10 10 C-6.92118304 6.12948725 -3.99926986 2.97088618 0 0 Z " fill="#62A364" transform="translate(745,207)"/>
<path d="M0 0 C0.66 0.33 1.32 0.66 2 1 C0.625 3.5 0.625 3.5 -1 6 C-1.66 6 -2.32 6 -3 6 C-3.28875 6.639375 -3.5775 7.27875 -3.875 7.9375 C-5 10 -5 10 -7 11 C-6.68232368 5.59950264 -3.80003673 3.47662935 0 0 Z " fill="#62A262" transform="translate(701,298)"/>
<path d="M0 0 C0.66 0.33 1.32 0.66 2 1 C0.2126038 2.33905267 -1.58004953 3.67109066 -3.375 5 C-4.37273438 5.7425 -5.37046875 6.485 -6.3984375 7.25 C-9 9 -9 9 -11 9 C-11 8.34 -11 7.68 -11 7 C-10.01 7 -9.02 7 -8 7 C-8 6.34 -8 5.68 -8 5 C-7.34 4.67 -6.68 4.34 -6 4 C-6 3.01 -6 2.02 -6 1 C-4.7934375 1.0309375 -4.7934375 1.0309375 -3.5625 1.0625 C-1.06645115 1.29633621 -1.06645115 1.29633621 0 0 Z " fill="#E75D57" transform="translate(571,591)"/>
<path d="M0 0 C4.875 3.625 4.875 3.625 6 7 C5.67 7.66 5.34 8.32 5 9 C4.34 9 3.68 9 3 9 C2.34 7.35 1.68 5.7 1 4 C0.01 4 -0.98 4 -2 4 C-2 3.01 -2 2.02 -2 1 C-1.34 0.67 -0.68 0.34 0 0 Z " fill="#DE5B4C" transform="translate(590,468)"/>
<path d="M0 0 C0.66 0.33 1.32 0.66 2 1 C0.11788404 4.48191452 -1.5009599 7.03178994 -5 9 C-5.99 8.67 -6.98 8.34 -8 8 C-5.36 5.36 -2.72 2.72 0 0 Z " fill="#E75953" transform="translate(439,431)"/>
<path d="M0 0 C0.99 0.33 1.98 0.66 3 1 C0.35039045 4.63094642 -2.01824456 6.89851796 -6 9 C-5.52797514 4.75177626 -3.03344482 2.80010291 0 0 Z " fill="#529751" transform="translate(597,397)"/>
<path d="M0 0 C0.33 0.66 0.66 1.32 1 2 C0.00390625 4.3828125 0.00390625 4.3828125 -1.4375 7.125 C-1.91058594 8.03507812 -2.38367188 8.94515625 -2.87109375 9.8828125 C-3.24363281 10.58148438 -3.61617187 11.28015625 -4 12 C-4.33 12 -4.66 12 -5 12 C-5.32469403 7.34605219 -4.79790518 4.76641082 -2 1 C-1.34 0.67 -0.68 0.34 0 0 Z " fill="#5B9B56" transform="translate(665,293)"/>
<path d="M0 0 C3.81287042 1.44626119 5.32707177 3.30194812 7 7 C6.57421875 9.1640625 6.57421875 9.1640625 6 11 C4.9944239 9.54550599 3.99569565 8.08627557 3 6.625 C2.443125 5.81289063 1.88625 5.00078125 1.3125 4.1640625 C0 2 0 2 0 0 Z " fill="#E55850" transform="translate(413,563)"/>
<path d="M0 0 C0.33 0.66 0.66 1.32 1 2 C-0.98 4.97 -2.96 7.94 -5 11 C-6 7 -6 7 -4.1875 3.8125 C-2 1 -2 1 0 0 Z " fill="#F8D872" transform="translate(606,360)"/>
<path d="M0 0 C0.99 0.33 1.98 0.66 3 1 C-0.12621626 4.39417765 -2.56541027 6.6062718 -7 8 C-6.02133662 6.85373678 -5.04205413 5.70800212 -4.0625 4.5625 C-3.51722656 3.92441406 -2.97195313 3.28632813 -2.41015625 2.62890625 C-1.63204305 1.73008851 -0.84063472 0.84063472 0 0 Z " fill="#5C9B58" transform="translate(609,385)"/>
<path d="M0 0 C1.32 0.66 2.64 1.32 4 2 C1.03 4.475 1.03 4.475 -2 7 C-2 6.34 -2 5.68 -2 5 C-2.66 4.67 -3.32 4.34 -4 4 C-2.68 2.68 -1.36 1.36 0 0 Z " fill="#65A463" transform="translate(648,384)"/>
<path d="M0 0 C5.53846154 0.61538462 5.53846154 0.61538462 7.875 2.5625 C8.431875 3.2740625 8.431875 3.2740625 9 4 C4.82412255 5.39195915 2.86525224 3.82323219 -1 2 C-0.67 1.34 -0.34 0.68 0 0 Z " fill="#E24946" transform="translate(457,603)"/>
<path d="M0 0 C4.83256305 0.41421969 6.82679218 2.46413986 10 6 C6.62972148 6 5.93297304 5.50175992 3.3125 3.5625 C2.68988281 3.11003906 2.06726563 2.65757812 1.42578125 2.19140625 C0.95527344 1.79824219 0.48476563 1.40507813 0 1 C0 0.67 0 0.34 0 0 Z " fill="#E85E54" transform="translate(439,593)"/>
<path d="M0 0 C0.66 0.33 1.32 0.66 2 1 C0.35 2.98 -1.3 4.96 -3 7 C-4.32 6.67 -5.64 6.34 -7 6 C-4.69 4.02 -2.38 2.04 0 0 Z " fill="#FDDE8B" transform="translate(340,300)"/>
<path d="M0 0 C2.31 0.33 4.62 0.66 7 1 C3.71508627 3.18994248 2.16904361 3.35277339 -1.6875 3.625 C-3.17830078 3.73714844 -3.17830078 3.73714844 -4.69921875 3.8515625 C-5.83810547 3.92503906 -5.83810547 3.92503906 -7 4 C-4.35261084 2.5393715 -3.10551666 2 0 2 C0 1.34 0 0.68 0 0 Z " fill="#FDC428" transform="translate(460,281)"/>
<path d="M0 0 C3.59391114 1.33488128 6.75490696 2.96022723 10 5 C9.01 5.495 9.01 5.495 8 6 C4.4375 4.75 4.4375 4.75 1 3 C0.67 2.01 0.34 1.02 0 0 Z " fill="#FDE08E" transform="translate(375,704)"/>
<path d="M0 0 C0.66 0.33 1.32 0.66 2 1 C-0.97 3.64 -3.94 6.28 -7 9 C-7.33 8.01 -7.66 7.02 -8 6 C-5.36 4.02 -2.72 2.04 0 0 Z " fill="#FDE191" transform="translate(348,339)"/>
<path d="M0 0 C1.32 0.33 2.64 0.66 4 1 C2.35 2.98 0.7 4.96 -1 7 C-1.625 5.1875 -1.625 5.1875 -2 3 C-1.34 2.01 -0.68 1.02 0 0 Z " fill="#4E9854" transform="translate(705,314)"/>
<path d="M0 0 C0 3.39593478 -0.52165948 4.06619881 -2.5 6.6875 C-2.9640625 7.31011719 -3.428125 7.93273437 -3.90625 8.57421875 C-4.2671875 9.04472656 -4.628125 9.51523437 -5 10 C-5 6.73204297 -4.42149484 4.9178052 -3 2 C-2.01 1.34 -1.02 0.68 0 0 Z " fill="#FBE29D" transform="translate(731,660)"/>
<path d="M0 0 C3.16717283 1.58358642 4.73268318 2.45263699 6.3125 5.6875 C6.539375 6.450625 6.76625 7.21375 7 8 C6.01 8 5.02 8 4 8 C0 2.74285714 0 2.74285714 0 0 Z " fill="#FDD466" transform="translate(372,594)"/>
<path d="M0 0 C0.66 0.99 1.32 1.98 2 3 C1.125 6.1875 1.125 6.1875 0 9 C-2 6 -2 6 -1.6875 3.9375 C-1 2 -1 2 0 0 Z " fill="#DE3438" transform="translate(415,460)"/>
<path d="M0 0 C-5.17578125 3.22265625 -5.17578125 3.22265625 -7 4 C-7.99 3.67 -8.98 3.34 -10 3 C-7.30922307 -0.25725628 -4.0224365 -2.01121825 0 0 Z " fill="#74AC6D" transform="translate(739,351)"/>
<path d="M0 0 C1.53690745 2.41040161 2.09752136 3.50082285 1.5390625 6.359375 C1.23742187 7.14828125 0.93578125 7.9371875 0.625 8.75 C0.32851563 9.54921875 0.03203125 10.3484375 -0.2734375 11.171875 C-0.51320313 11.77515625 -0.75296875 12.3784375 -1 13 C-1.33 13 -1.66 13 -2 13 C-2.19294408 8.17639811 -1.75747614 4.50353262 0 0 Z " fill="#268133" transform="translate(657,312)"/>
<path d="M0 0 C0.33 0.66 0.66 1.32 1 2 C-0.65 3.98 -2.3 5.96 -4 8 C-4.99 7.67 -5.98 7.34 -7 7 C-4.69 4.69 -2.38 2.38 0 0 Z " fill="#278539" transform="translate(742,278)"/>
<path d="M0 0 C0.33 0.66 0.66 1.32 1 2 C0.22265625 3.9453125 0.22265625 3.9453125 -0.9375 6.125 C-1.31777344 6.84945313 -1.69804687 7.57390625 -2.08984375 8.3203125 C-2.39019531 8.87460937 -2.69054687 9.42890625 -3 10 C-3.66 8.68 -4.32 7.36 -5 6 C-4.01 5.67 -3.02 5.34 -2 5 C-2 3.68 -2 2.36 -2 1 C-1.34 0.67 -0.68 0.34 0 0 Z " fill="#E66A62" transform="translate(496,481)"/>
<path d="M0 0 C0.66 0.33 1.32 0.66 2 1 C1.67 2.32 1.34 3.64 1 5 C-0.65 5.33 -2.3 5.66 -4 6 C-2.68 4.02 -1.36 2.04 0 0 Z " fill="#6DA169" transform="translate(545,448)"/>
<path d="M0 0 C0.99 0.33 1.98 0.66 3 1 C1.7191375 4.64553172 0.83328987 6.16671013 -2 9 C-1.34 6.03 -0.68 3.06 0 0 Z " fill="#F9DE85" transform="translate(609,351)"/>
<path d="M0 0 C-1.98 0.66 -3.96 1.32 -6 2 C-6 2.66 -6 3.32 -6 4 C-7.65 4 -9.3 4 -11 4 C-8.32997607 0.73663741 -4.08378642 -2.04189321 0 0 Z " fill="#FEC526" transform="translate(440,336)"/>
<path d="M0 0 C-1.41519715 2.0343459 -2.54982123 2.90410393 -4.98046875 3.421875 C-6.98176954 3.66273952 -8.9909944 3.83532741 -11 4 C-3.77464789 -1.88732394 -3.77464789 -1.88732394 0 0 Z " fill="#FEC729" transform="translate(407,266)"/>
<path d="M0 0 C0 3 0 3 -1.375 4.6875 C-3 6 -3 6 -5 6 C-5.33 5.01 -5.66 4.02 -6 3 C-3 1 -3 1 -1 1 C-0.67 0.67 -0.34 0.34 0 0 Z " fill="#FDDC85" transform="translate(715,681)"/>
<path d="M0 0 C-2.31 1.65 -4.62 3.3 -7 5 C-7.66 4.67 -8.32 4.34 -9 4 C-6.56225426 0.2214941 -6.56225426 0.2214941 -3.9375 -0.8125 C-2 -1 -2 -1 0 0 Z " fill="#FEE49B" transform="translate(422,383)"/>
<path d="M0 0 C0.8125 1.6875 0.8125 1.6875 1 4 C-1.4375 6.75 -1.4375 6.75 -4 9 C-3.67 7.35 -3.34 5.7 -3 4 C-2.34 4 -1.68 4 -1 4 C-0.67 2.68 -0.34 1.36 0 0 Z " fill="#4A954F" transform="translate(651,340)"/>
<path d="M0 0 C0.33 0.99 0.66 1.98 1 3 C-1.97 5.475 -1.97 5.475 -5 8 C-5 5 -5 5 -2.5 2.3125 C-1.675 1.549375 -0.85 0.78625 0 0 Z " fill="#258134" transform="translate(693,329)"/>
<path d="M0 0 C0 3.69418201 -1.28179295 5.77836178 -3 9 C-3.33 9 -3.66 9 -4 9 C-4.25 6.1875 -4.25 6.1875 -4 3 C-2 1.125 -2 1.125 0 0 Z " fill="#7EB277" transform="translate(692,310)"/>
<path d="M0 0 C0.66 0.33 1.32 0.66 2 1 C0.9024777 3.99324263 0.32317108 4.84610901 -2.625 6.25 C-3.40875 6.4975 -4.1925 6.745 -5 7 C-4.1875 5.0625 -4.1875 5.0625 -3 3 C-2.01 2.67 -1.02 2.34 0 2 C0 1.34 0 0.68 0 0 Z " fill="#76AD74" transform="translate(753,198)"/>
<path d="M0 0 C4.75 0.75 4.75 0.75 7 3 C7 3.66 7 4.32 7 5 C3.34683329 3.75023244 2.21934164 3.32901247 0 0 Z " fill="#FBDC84" transform="translate(338,721)"/>
<path d="M0 0 C0.99 0 1.98 0 3 0 C3.1875 2.375 3.1875 2.375 3 5 C2.01 5.66 1.02 6.32 0 7 C0 4.69 0 2.38 0 0 Z " fill="#5C9A5C" transform="translate(556,474)"/>
<path d="M0 0 C0.66 0 1.32 0 2 0 C1.67 1.32 1.34 2.64 1 4 C0.67 2.68 0.34 1.36 0 0 Z " fill="#FEDB71" transform="translate(736,538)"/>
<path d="M0 0 C0.99 0.495 0.99 0.495 2 1 C1.67 2.32 1.34 3.64 1 5 C0.67 3.35 0.34 1.7 0 0 Z " fill="#FED673" transform="translate(656,482)"/>
<path d="M0 0 C0.33 0 0.66 0 1 0 C1 1.65 1 3.3 1 5 C0.67 5 0.34 5 0 5 C0 3.35 0 1.7 0 0 Z " fill="#F4CF62" transform="translate(232,489)"/>
<path d="M0 0 C1 4 1 4 1 4 Z " fill="#F6D061" transform="translate(232,544)"/>
<path d="M0 0 C1 4 1 4 1 4 Z " fill="#FFDB70" transform="translate(737,484)"/>
<path d="M0 0 C3 1 3 1 3 1 Z " fill="#FEDC70" transform="translate(469,736)"/>
<path d="M0 0 C3 1 3 1 3 1 Z " fill="#FFDE6C" transform="translate(440,691)"/>
<path d="" fill="#FED36E" transform="translate(0,0)"/>
<path d="M0 0 C2 1 2 1 2 1 Z " fill="#FEDD6A" transform="translate(641,697)"/>
<path d="M0 0 C2 1 2 1 2 1 Z " fill="#FDD46C" transform="translate(470,656)"/>
<path d="" fill="#F3CD5E" transform="translate(0,0)"/>
<path d="" fill="#FFDB6E" transform="translate(0,0)"/>
<path d="" fill="#F7CF5E" transform="translate(0,0)"/>
<path d="" fill="#F4CF62" transform="translate(0,0)"/>
<path d="" fill="#FDDB70" transform="translate(0,0)"/>
<path d="" fill="#F7D262" transform="translate(0,0)"/>
<path d="M0 0 C2 1 2 1 2 1 Z " fill="#E35B57" transform="translate(486,523)"/>
<path d="" fill="#FFDB70" transform="translate(0,0)"/>
<path d="" fill="#FFDB68" transform="translate(0,0)"/>
<path d="" fill="#FFDA70" transform="translate(0,0)"/>
<path d="" fill="#FFDC6F" transform="translate(0,0)"/>
<path d="" fill="#F7D05E" transform="translate(0,0)"/>
<path d="M0 0 C2 1 2 1 2 1 Z " fill="#FEDB6F" transform="translate(720,429)"/>
<path d="M0 0 C2 1 2 1 2 1 Z " fill="#FDDB6E" transform="translate(712,413)"/>
<path d="M0 0 C2 1 2 1 2 1 Z " fill="#EF7F6C" transform="translate(478,408)"/>
<path d="M0 0 C2 1 2 1 2 1 Z " fill="#EF7B66" transform="translate(508,404)"/>
<path d="M0 0 C2 1 2 1 2 1 Z " fill="#FCD775" transform="translate(438,375)"/>
<path d="" fill="#FFDD71" transform="translate(0,0)"/>
<path d="" fill="#8AAB6A" transform="translate(0,0)"/>
<path d="M0 0 C2 1 2 1 2 1 Z " fill="#F2D66A" transform="translate(616,310)"/>
<path d="M0 0 C2 1 2 1 2 1 Z " fill="#FFDE6F" transform="translate(579,294)"/>
<path d="M0 0 C2 1 2 1 2 1 Z " fill="#F4CD59" transform="translate(397,265)"/>
<path d="M0 0 C2 1 2 1 2 1 Z " fill="#F8D35C" transform="translate(557,248)"/>
<path d="" fill="#625E34" transform="translate(0,0)"/>
<path d="" fill="#F7D05D" transform="translate(0,0)"/>
<path d="" fill="#F8CF5C" transform="translate(0,0)"/>
<path d="" fill="#F3CE60" transform="translate(0,0)"/>
<path d="" fill="#F5CB5D" transform="translate(0,0)"/>
<path d="" fill="#F6CF5D" transform="translate(0,0)"/>
<path d="" fill="#F3CF5E" transform="translate(0,0)"/>
<path d="" fill="#F3CB56" transform="translate(0,0)"/>
<path d="" fill="#F5CF67" transform="translate(0,0)"/>
<path d="" fill="#F4CE5B" transform="translate(0,0)"/>
<path d="" fill="#F5D15F" transform="translate(0,0)"/>
<path d="" fill="#F3CE5C" transform="translate(0,0)"/>
<path d="" fill="#F2CC57" transform="translate(0,0)"/>
<path d="" fill="#F5CF5F" transform="translate(0,0)"/>
<path d="" fill="#F0CA5A" transform="translate(0,0)"/>
<path d="" fill="#FEDB67" transform="translate(0,0)"/>
<path d="" fill="#F5CB5A" transform="translate(0,0)"/>
<path d="" fill="#F7CC5C" transform="translate(0,0)"/>
<path d="" fill="#FDDC73" transform="translate(0,0)"/>
<path d="" fill="#FBD866" transform="translate(0,0)"/>
<path d="" fill="#FBDA73" transform="translate(0,0)"/>
<path d="" fill="#F0CC67" transform="translate(0,0)"/>
<path d="" fill="#FFDB6E" transform="translate(0,0)"/>
<path d="" fill="#FDD96F" transform="translate(0,0)"/>
<path d="" fill="#FCDC75" transform="translate(0,0)"/>
<path d="" fill="#FFDD6C" transform="translate(0,0)"/>
<path d="" fill="#FFDC70" transform="translate(0,0)"/>
<path d="" fill="#FEDB65" transform="translate(0,0)"/>
<path d="" fill="#FFDF77" transform="translate(0,0)"/>
<path d="" fill="#FFDD67" transform="translate(0,0)"/>
<path d="" fill="#FFDE6E" transform="translate(0,0)"/>
<path d="" fill="#FEDE6E" transform="translate(0,0)"/>
<path d="" fill="#F7D05A" transform="translate(0,0)"/>
<path d="" fill="#F6CF59" transform="translate(0,0)"/>
<path d="" fill="#FFDA6D" transform="translate(0,0)"/>
<path d="" fill="#F4CD5C" transform="translate(0,0)"/>
<path d="" fill="#FEDA6A" transform="translate(0,0)"/>
<path d="" fill="#FCD95F" transform="translate(0,0)"/>
<path d="" fill="#F2CD5B" transform="translate(0,0)"/>
<path d="" fill="#FFD867" transform="translate(0,0)"/>
<path d="" fill="#FFDB68" transform="translate(0,0)"/>
<path d="" fill="#FFDD6D" transform="translate(0,0)"/>
<path d="" fill="#FFD85F" transform="translate(0,0)"/>
<path d="" fill="#FCDC60" transform="translate(0,0)"/>
<path d="" fill="#F5CF59" transform="translate(0,0)"/>
<path d="" fill="#FED46F" transform="translate(0,0)"/>
<path d="" fill="#FFDD68" transform="translate(0,0)"/>
<path d="" fill="#FFDE6B" transform="translate(0,0)"/>
<path d="" fill="#FFDC6D" transform="translate(0,0)"/>
<path d="" fill="#FFD574" transform="translate(0,0)"/>
<path d="" fill="#F7CF58" transform="translate(0,0)"/>
<path d="" fill="#FEDB6A" transform="translate(0,0)"/>
<path d="" fill="#FEDB71" transform="translate(0,0)"/>
<path d="" fill="#F5CD5D" transform="translate(0,0)"/>
<path d="" fill="#FED272" transform="translate(0,0)"/>
<path d="" fill="#FFDD69" transform="translate(0,0)"/>
<path d="" fill="#FFD673" transform="translate(0,0)"/>
<path d="" fill="#FFD376" transform="translate(0,0)"/>
<path d="" fill="#FFD475" transform="translate(0,0)"/>
<path d="" fill="#FFD275" transform="translate(0,0)"/>
<path d="" fill="#FBD374" transform="translate(0,0)"/>
<path d="" fill="#F5D25E" transform="translate(0,0)"/>
<path d="" fill="#FED172" transform="translate(0,0)"/>
<path d="" fill="#FFDD6C" transform="translate(0,0)"/>
<path d="" fill="#FFD26F" transform="translate(0,0)"/>
<path d="" fill="#FBD766" transform="translate(0,0)"/>
<path d="" fill="#FFDE6B" transform="translate(0,0)"/>
<path d="" fill="#FFD762" transform="translate(0,0)"/>
<path d="" fill="#FFD475" transform="translate(0,0)"/>
<path d="" fill="#FCDA6F" transform="translate(0,0)"/>
<path d="" fill="#FBDB6B" transform="translate(0,0)"/>
<path d="" fill="#F68570" transform="translate(0,0)"/>
<path d="" fill="#F6D05C" transform="translate(0,0)"/>
<path d="" fill="#FDD870" transform="translate(0,0)"/>
<path d="" fill="#FFDD6F" transform="translate(0,0)"/>
<path d="" fill="#FED866" transform="translate(0,0)"/>
<path d="" fill="#FDD673" transform="translate(0,0)"/>
<path d="" fill="#FED476" transform="translate(0,0)"/>
<path d="" fill="#FBD971" transform="translate(0,0)"/>
<path d="" fill="#F6D165" transform="translate(0,0)"/>
<path d="" fill="#F6CE60" transform="translate(0,0)"/>
<path d="" fill="#E87A6A" transform="translate(0,0)"/>
<path d="" fill="#FED774" transform="translate(0,0)"/>
<path d="" fill="#FFDE6F" transform="translate(0,0)"/>
<path d="" fill="#FDD877" transform="translate(0,0)"/>
<path d="" fill="#FFDD6C" transform="translate(0,0)"/>
<path d="" fill="#FFD96D" transform="translate(0,0)"/>
<path d="" fill="#F28170" transform="translate(0,0)"/>
<path d="" fill="#F0856C" transform="translate(0,0)"/>
<path d="" fill="#EA7567" transform="translate(0,0)"/>
<path d="" fill="#FFD46F" transform="translate(0,0)"/>
<path d="" fill="#F7D365" transform="translate(0,0)"/>
<path d="" fill="#FFD86E" transform="translate(0,0)"/>
<path d="" fill="#FFD76F" transform="translate(0,0)"/>
<path d="" fill="#FFDD6C" transform="translate(0,0)"/>
<path d="" fill="#FFDE70" transform="translate(0,0)"/>
<path d="" fill="#FFD672" transform="translate(0,0)"/>
<path d="" fill="#FFDD71" transform="translate(0,0)"/>
<path d="" fill="#FFDB70" transform="translate(0,0)"/>
<path d="" fill="#FFDF71" transform="translate(0,0)"/>
<path d="" fill="#FFDB6A" transform="translate(0,0)"/>
<path d="" fill="#FFDE72" transform="translate(0,0)"/>
<path d="" fill="#FCD564" transform="translate(0,0)"/>
<path d="" fill="#D9675C" transform="translate(0,0)"/>
<path d="" fill="#FEDA6C" transform="translate(0,0)"/>
<path d="" fill="#FFDA69" transform="translate(0,0)"/>
<path d="" fill="#FEDA6C" transform="translate(0,0)"/>
<path d="" fill="#CE7460" transform="translate(0,0)"/>
<path d="" fill="#B88665" transform="translate(0,0)"/>
<path d="" fill="#B88464" transform="translate(0,0)"/>
<path d="" fill="#CA7A5F" transform="translate(0,0)"/>
<path d="" fill="#FFDC68" transform="translate(0,0)"/>
<path d="" fill="#C77A5F" transform="translate(0,0)"/>
<path d="" fill="#C27B62" transform="translate(0,0)"/>
<path d="" fill="#FEDD71" transform="translate(0,0)"/>
<path d="" fill="#A69269" transform="translate(0,0)"/>
<path d="" fill="#FEDC6D" transform="translate(0,0)"/>
<path d="" fill="#F1806E" transform="translate(0,0)"/>
<path d="" fill="#FFDD74" transform="translate(0,0)"/>
<path d="" fill="#C67B5E" transform="translate(0,0)"/>
<path d="" fill="#C27A5B" transform="translate(0,0)"/>
<path d="" fill="#C57F5B" transform="translate(0,0)"/>
<path d="" fill="#C37E5C" transform="translate(0,0)"/>
<path d="" fill="#F38770" transform="translate(0,0)"/>
<path d="" fill="#FED876" transform="translate(0,0)"/>
<path d="" fill="#FEDA71" transform="translate(0,0)"/>
<path d="" fill="#FAD368" transform="translate(0,0)"/>
<path d="" fill="#BF8862" transform="translate(0,0)"/>
<path d="" fill="#C58662" transform="translate(0,0)"/>
<path d="" fill="#F6CF60" transform="translate(0,0)"/>
<path d="" fill="#C78665" transform="translate(0,0)"/>
<path d="" fill="#C08A64" transform="translate(0,0)"/>
<path d="" fill="#9D9667" transform="translate(0,0)"/>
<path d="" fill="#AA8869" transform="translate(0,0)"/>
<path d="" fill="#9E9869" transform="translate(0,0)"/>
<path d="" fill="#F7D060" transform="translate(0,0)"/>
<path d="" fill="#F1806D" transform="translate(0,0)"/>
<path d="" fill="#AC8866" transform="translate(0,0)"/>
<path d="" fill="#FED96F" transform="translate(0,0)"/>
<path d="" fill="#A08A68" transform="translate(0,0)"/>
<path d="" fill="#FCD972" transform="translate(0,0)"/>
<path d="" fill="#FBD774" transform="translate(0,0)"/>
<path d="" fill="#FFDA6C" transform="translate(0,0)"/>
<path d="" fill="#F38470" transform="translate(0,0)"/>
<path d="" fill="#F3816D" transform="translate(0,0)"/>
<path d="" fill="#F28470" transform="translate(0,0)"/>
<path d="" fill="#F9D661" transform="translate(0,0)"/>
<path d="" fill="#F9D66C" transform="translate(0,0)"/>
<path d="" fill="#F9D96B" transform="translate(0,0)"/>
<path d="" fill="#F9D66E" transform="translate(0,0)"/>
<path d="" fill="#F4CC53" transform="translate(0,0)"/>
<path d="" fill="#F2D46C" transform="translate(0,0)"/>
<path d="" fill="#F4CD5F" transform="translate(0,0)"/>
<path d="" fill="#FFD573" transform="translate(0,0)"/>
<path d="" fill="#FFD676" transform="translate(0,0)"/>
<path d="" fill="#EE7F6D" transform="translate(0,0)"/>
<path d="" fill="#F3CE5F" transform="translate(0,0)"/>
<path d="" fill="#FFDA75" transform="translate(0,0)"/>
<path d="" fill="#FDD86F" transform="translate(0,0)"/>
<path d="" fill="#F27F6F" transform="translate(0,0)"/>
<path d="" fill="#D9CD73" transform="translate(0,0)"/>
<path d="" fill="#F8D862" transform="translate(0,0)"/>
<path d="" fill="#FFDA69" transform="translate(0,0)"/>
<path d="" fill="#FBDA70" transform="translate(0,0)"/>
<path d="" fill="#FFDB68" transform="translate(0,0)"/>
<path d="" fill="#84A56A" transform="translate(0,0)"/>
<path d="" fill="#FED372" transform="translate(0,0)"/>
<path d="" fill="#FDDC6C" transform="translate(0,0)"/>
<path d="" fill="#EE7565" transform="translate(0,0)"/>
<path d="" fill="#F27D6A" transform="translate(0,0)"/>
<path d="" fill="#FCDD6F" transform="translate(0,0)"/>
<path d="" fill="#F5CF5E" transform="translate(0,0)"/>
<path d="" fill="#EFCC5F" transform="translate(0,0)"/>
<path d="" fill="#F7D86C" transform="translate(0,0)"/>
<path d="" fill="#EFD067" transform="translate(0,0)"/>
<path d="" fill="#FFDE6D" transform="translate(0,0)"/>
<path d="" fill="#FFDA63" transform="translate(0,0)"/>
<path d="" fill="#F3CD62" transform="translate(0,0)"/>
<path d="" fill="#F7D159" transform="translate(0,0)"/>
<path d="" fill="#FFD66F" transform="translate(0,0)"/>
<path d="" fill="#91B168" transform="translate(0,0)"/>
<path d="" fill="#FED475" transform="translate(0,0)"/>
<path d="" fill="#FFD669" transform="translate(0,0)"/>
<path d="" fill="#E7CD65" transform="translate(0,0)"/>
<path d="" fill="#9BB46A" transform="translate(0,0)"/>
<path d="" fill="#F9D571" transform="translate(0,0)"/>
<path d="" fill="#F2CD60" transform="translate(0,0)"/>
<path d="" fill="#FFDB6B" transform="translate(0,0)"/>
<path d="" fill="#F1CE5E" transform="translate(0,0)"/>
<path d="" fill="#FAD971" transform="translate(0,0)"/>
<path d="" fill="#D1C06A" transform="translate(0,0)"/>
<path d="" fill="#F3D46B" transform="translate(0,0)"/>
<path d="" fill="#FFDE6D" transform="translate(0,0)"/>
<path d="" fill="#8DB471" transform="translate(0,0)"/>
<path d="" fill="#89B272" transform="translate(0,0)"/>
<path d="" fill="#FFD271" transform="translate(0,0)"/>
<path d="" fill="#90B476" transform="translate(0,0)"/>
<path d="" fill="#FED86E" transform="translate(0,0)"/>
<path d="" fill="#FDD46F" transform="translate(0,0)"/>
<path d="" fill="#FCD665" transform="translate(0,0)"/>
<path d="" fill="#FFD86D" transform="translate(0,0)"/>
<path d="" fill="#FED772" transform="translate(0,0)"/>
<path d="" fill="#88B06B" transform="translate(0,0)"/>
<path d="" fill="#FFDB6F" transform="translate(0,0)"/>
<path d="" fill="#90B46F" transform="translate(0,0)"/>
<path d="" fill="#CFC66C" transform="translate(0,0)"/>
<path d="" fill="#90B46B" transform="translate(0,0)"/>
<path d="" fill="#F1CE60" transform="translate(0,0)"/>
<path d="" fill="#F5CD5E" transform="translate(0,0)"/>
<path d="" fill="#F6CD5C" transform="translate(0,0)"/>
<path d="" fill="#E9D169" transform="translate(0,0)"/>
<path d="" fill="#FFDC66" transform="translate(0,0)"/>
<path d="" fill="#EECD67" transform="translate(0,0)"/>
<path d="" fill="#FFDD6C" transform="translate(0,0)"/>
<path d="" fill="#69A665" transform="translate(0,0)"/>
<path d="" fill="#FFDD72" transform="translate(0,0)"/>
<path d="" fill="#6AA666" transform="translate(0,0)"/>
<path d="" fill="#FFDE72" transform="translate(0,0)"/>
<path d="" fill="#6AA468" transform="translate(0,0)"/>
<path d="" fill="#FFDC74" transform="translate(0,0)"/>
<path d="" fill="#FFDD6D" transform="translate(0,0)"/>
<path d="" fill="#F2D36C" transform="translate(0,0)"/>
<path d="" fill="#F4CF61" transform="translate(0,0)"/>
<path d="" fill="#6EA766" transform="translate(0,0)"/>
<path d="" fill="#FDD96E" transform="translate(0,0)"/>
<path d="" fill="#96B76D" transform="translate(0,0)"/>
<path d="" fill="#F7D25A" transform="translate(0,0)"/>
<path d="" fill="#92B16B" transform="translate(0,0)"/>
<path d="" fill="#FFDE75" transform="translate(0,0)"/>
<path d="" fill="#FFDA6E" transform="translate(0,0)"/>
<path d="" fill="#FFDF6D" transform="translate(0,0)"/>
<path d="" fill="#FFDF6B" transform="translate(0,0)"/>
<path d="" fill="#FFDB5D" transform="translate(0,0)"/>
<path d="" fill="#FFDB6D" transform="translate(0,0)"/>
<path d="" fill="#FDDC6E" transform="translate(0,0)"/>
<path d="" fill="#90B46C" transform="translate(0,0)"/>
<path d="" fill="#95B46E" transform="translate(0,0)"/>
<path d="" fill="#FFDD6F" transform="translate(0,0)"/>
<path d="" fill="#F6CF5E" transform="translate(0,0)"/>
<path d="" fill="#6AA668" transform="translate(0,0)"/>
<path d="" fill="#F4CE5F" transform="translate(0,0)"/>
<path d="" fill="#8FB26B" transform="translate(0,0)"/>
<path d="" fill="#72A76D" transform="translate(0,0)"/>
<path d="" fill="#F3CF5C" transform="translate(0,0)"/>
<path d="" fill="#68AA68" transform="translate(0,0)"/>
<path d="" fill="#75AC65" transform="translate(0,0)"/>
<path d="" fill="#7AAC6A" transform="translate(0,0)"/>
<path d="" fill="#7AAA6A" transform="translate(0,0)"/>
<path d="" fill="#F5D168" transform="translate(0,0)"/>
<path d="" fill="#F8D165" transform="translate(0,0)"/>
<path d="" fill="#72A865" transform="translate(0,0)"/>
<path d="" fill="#73A965" transform="translate(0,0)"/>
<path d="" fill="#F2D168" transform="translate(0,0)"/>
<path d="" fill="#EECE67" transform="translate(0,0)"/>
<path d="" fill="#F4D166" transform="translate(0,0)"/>
<path d="" fill="#63985D" transform="translate(0,0)"/>
<path d="" fill="#6BA869" transform="translate(0,0)"/>
<path d="" fill="#F1D062" transform="translate(0,0)"/>
<path d="" fill="#F5D366" transform="translate(0,0)"/>
<path d="" fill="#F8D05D" transform="translate(0,0)"/>
<path d="" fill="#63A15F" transform="translate(0,0)"/>
<path d="" fill="#F7D060" transform="translate(0,0)"/>
<path d="" fill="#F3D267" transform="translate(0,0)"/>
<path d="" fill="#F2D061" transform="translate(0,0)"/>
<path d="" fill="#6AA867" transform="translate(0,0)"/>
<path d="" fill="#F6D05E" transform="translate(0,0)"/>
<path d="" fill="#F7CE5B" transform="translate(0,0)"/>
<path d="" fill="#6BA566" transform="translate(0,0)"/>
<path d="" fill="#F5CF5B" transform="translate(0,0)"/>
<path d="" fill="#F5CF5F" transform="translate(0,0)"/>
<path d="" fill="#F8D35C" transform="translate(0,0)"/>
<path d="" fill="#63A565" transform="translate(0,0)"/>
<path d="" fill="#65A464" transform="translate(0,0)"/>
<path d="" fill="#64A267" transform="translate(0,0)"/>
<path d="" fill="#65A166" transform="translate(0,0)"/>
<path d="" fill="#67A166" transform="translate(0,0)"/>
<path d="" fill="#669D60" transform="translate(0,0)"/>
</svg>
